<?xml version="1.0" encoding="UTF-8" standalone="no"?>
<svg
   xmlns:dc="http://purl.org/dc/elements/1.1/"
   xmlns:cc="http://creativecommons.org/ns#"
   xmlns:rdf="http://www.w3.org/1999/02/22-rdf-syntax-ns#"
   xmlns:svg="http://www.w3.org/2000/svg"
   xmlns="http://www.w3.org/2000/svg"
   xmlns:sodipodi="http://sodipodi.sourceforge.net/DTD/sodipodi-0.dtd"
   xmlns:inkscape="http://www.inkscape.org/namespaces/inkscape"
   version="1.1"
   x="0px"
   y="0px"
   viewBox="0 0 100 100"
   style="enable-background:new 0 0 100 100;"
   xml:space="preserve"
   id="svg6"
   sodipodi:docname="brush.svg"
   inkscape:version="1.0.1 (3bc2e813f5, 2020-09-07)"><metadata
     id="metadata12"><rdf:RDF><cc:Work
         rdf:about=""><dc:format>image/svg+xml</dc:format><dc:type
           rdf:resource="http://purl.org/dc/dcmitype/StillImage" /></cc:Work></rdf:RDF></metadata><defs
     id="defs10" /><sodipodi:namedview
     pagecolor="#ffffff"
     bordercolor="#666666"
     borderopacity="1"
     objecttolerance="10"
     gridtolerance="10"
     guidetolerance="10"
     inkscape:pageopacity="0"
     inkscape:pageshadow="2"
     inkscape:window-width="1754"
     inkscape:window-height="1314"
     id="namedview8"
     showgrid="false"
     inkscape:zoom="10.08"
     inkscape:cx="41.765873"
     inkscape:cy="50"
     inkscape:window-x="0"
     inkscape:window-y="0"
     inkscape:window-maximized="0"
     inkscape:current-layer="svg6" /><path
     d="M42,91.9c-4,5.4-10.6,6.7-15.4,6.8c-5.7,0.2-10.6-1.2-13-2.2c6.2-2.6,8.5-6.4,10.9-10.4c1.3-2.2,2.6-4.4,4.7-6.6  c1.6-1.7,3.8-2.7,6.2-2.7c2.4-0.1,4.6,0.8,6.3,2.4C45.7,82.9,44.6,88.4,42,91.9z"
     id="path2"
     style="fill:#e59500;fill-opacity:1" /><path
     d="M84.4,7.4L45.8,78.9c-0.5-0.7-1-1.4-1.7-2c-2.3-2.2-5.3-3.4-8.5-3.3L79,4.3c0.8-1.4,2.6-1.9,4.1-1.1l0.3,0.2  C84.7,4.2,85.2,6,84.4,7.4z"
     id="path4"
     style="fill:#e59500;fill-opacity:1" /></svg>
