<?xml version="1.0" encoding="UTF-8" standalone="no"?>
<svg
   xmlns:dc="http://purl.org/dc/elements/1.1/"
   xmlns:cc="http://creativecommons.org/ns#"
   xmlns:rdf="http://www.w3.org/1999/02/22-rdf-syntax-ns#"
   xmlns:svg="http://www.w3.org/2000/svg"
   xmlns="http://www.w3.org/2000/svg"
   xmlns:sodipodi="http://sodipodi.sourceforge.net/DTD/sodipodi-0.dtd"
   xmlns:inkscape="http://www.inkscape.org/namespaces/inkscape"
   version="1.1"
   id="Capa_1"
   x="0px"
   y="0px"
   viewBox="0 0 490.2 490.2"
   style="enable-background:new 0 0 490.2 490.2;"
   xml:space="preserve"
   sodipodi:docname="chip.svg"
   inkscape:version="1.0.1 (3bc2e813f5, 2020-09-07)"><metadata
   id="metadata41"><rdf:RDF><cc:Work
       rdf:about=""><dc:format>image/svg+xml</dc:format><dc:type
         rdf:resource="http://purl.org/dc/dcmitype/StillImage" /></cc:Work></rdf:RDF></metadata><defs
   id="defs39" /><sodipodi:namedview
   pagecolor="#ffffff"
   bordercolor="#666666"
   borderopacity="1"
   objecttolerance="10"
   gridtolerance="10"
   guidetolerance="10"
   inkscape:pageopacity="0"
   inkscape:pageshadow="2"
   inkscape:window-width="2560"
   inkscape:window-height="1361"
   id="namedview37"
   showgrid="false"
   inkscape:zoom="2.0563035"
   inkscape:cx="204.73631"
   inkscape:cy="245.10001"
   inkscape:window-x="-9"
   inkscape:window-y="-9"
   inkscape:window-maximized="1"
   inkscape:current-layer="Capa_1" />
<g
   id="g4"
   transform="matrix(0.92458779,0,0,0.92458779,18.483533,18.483533)"
   style="fill:#2e86ab;fill-opacity:1">
	<path
   d="m 469.15,265.9 c 11.5,0 20.9,-9.4 20.9,-20.9 0,-11.5 -9.4,-20.9 -20.9,-20.9 h -59.4 V 195 h 59.4 c 11.5,0 20.9,-9.4 20.9,-20.9 0,-11.5 -9.4,-20.9 -20.9,-20.9 h -59.4 v -51.1 c 0,-11.5 -9.4,-20.9 -20.9,-20.9 h -52.1 V 20.9 c 0,-11.5 -9.4,-20.9 -20.9,-20.9 -11.5,0 -20.9,9.4 -20.9,20.9 v 60.5 h -29.2 V 20.9 c 0,-11.5 -9.4,-20.9 -20.9,-20.9 -11.5,0 -20.9,9.4 -20.9,20.9 v 60.5 h -28.9 V 20.9 c 0,-11.5 -9.4,-20.9 -20.9,-20.9 -11.5,0 -20.9,9.4 -20.9,20.9 v 60.5 h -49 c -11.5,0 -20.9,9.4 -20.9,20.9 v 51.1 h -62.4 c -11.5,0 -20.9,9.4 -20.9,20.9 0,11.5 9.4,20.9 20.9,20.9 h 62.6 v 29.2 h -62.6 c -11.5,0 -20.9,9.4 -20.9,20.9 0,11.5 9.4,20.9 20.9,20.9 h 62.6 V 294 h -62.6 c -11.5,0 -20.9,9.4 -20.9,20.9 0,11.5 9.4,20.9 20.9,20.9 h 62.6 v 51.1 c 0,11.5 9.4,20.9 20.9,20.9 h 49 v 61.5 c 0,11.5 9.4,20.9 20.9,20.9 11.5,0 20.9,-9.4 20.9,-20.9 v -61.5 h 29.2 v 61.5 c 0,11.5 9.4,20.9 20.9,20.9 11.5,0 20.9,-9.4 20.9,-20.9 v -61.5 h 28.8 v 61.5 c 0,11.5 9.4,20.9 20.9,20.9 10.4,0 19.8,-9.4 20.9,-20.9 v -61.5 h 52.1 c 11.5,0 20.9,-8.3 20.9,-20.9 v -51.1 h 59.4 c 11.5,0 20.9,-9.4 20.9,-20.9 0,-11.5 -9.4,-20.9 -20.9,-20.9 h -59.4 V 265.9 Z M 368.05,367 h -244 V 123 h 244 z"
   id="path2"
   style="fill:#2e86ab;fill-opacity:1" />
</g>
<g
   id="g6"
   transform="matrix(0.92458779,0,0,0.92458779,18.483533,18.483533)">
</g>
<g
   id="g8"
   transform="matrix(0.92458779,0,0,0.92458779,18.483533,18.483533)">
</g>
<g
   id="g10"
   transform="matrix(0.92458779,0,0,0.92458779,18.483533,18.483533)">
</g>
<g
   id="g12"
   transform="matrix(0.92458779,0,0,0.92458779,18.483533,18.483533)">
</g>
<g
   id="g14"
   transform="matrix(0.92458779,0,0,0.92458779,18.483533,18.483533)">
</g>
<g
   id="g16"
   transform="matrix(0.92458779,0,0,0.92458779,18.483533,18.483533)">
</g>
<g
   id="g18"
   transform="matrix(0.92458779,0,0,0.92458779,18.483533,18.483533)">
</g>
<g
   id="g20"
   transform="matrix(0.92458779,0,0,0.92458779,18.483533,18.483533)">
</g>
<g
   id="g22"
   transform="matrix(0.92458779,0,0,0.92458779,18.483533,18.483533)">
</g>
<g
   id="g24"
   transform="matrix(0.92458779,0,0,0.92458779,18.483533,18.483533)">
</g>
<g
   id="g26"
   transform="matrix(0.92458779,0,0,0.92458779,18.483533,18.483533)">
</g>
<g
   id="g28"
   transform="matrix(0.92458779,0,0,0.92458779,18.483533,18.483533)">
</g>
<g
   id="g30"
   transform="matrix(0.92458779,0,0,0.92458779,18.483533,18.483533)">
</g>
<g
   id="g32"
   transform="matrix(0.92458779,0,0,0.92458779,18.483533,18.483533)">
</g>
<g
   id="g34"
   transform="matrix(0.92458779,0,0,0.92458779,18.483533,18.483533)">
</g>
</svg>
