<?xml version="1.0" encoding="UTF-8" standalone="no"?>
<!-- Created with Inkscape (http://www.inkscape.org/) -->

<svg
   xmlns:dc="http://purl.org/dc/elements/1.1/"
   xmlns:cc="http://creativecommons.org/ns#"
   xmlns:rdf="http://www.w3.org/1999/02/22-rdf-syntax-ns#"
   xmlns:svg="http://www.w3.org/2000/svg"
   xmlns="http://www.w3.org/2000/svg"
   xmlns:sodipodi="http://sodipodi.sourceforge.net/DTD/sodipodi-0.dtd"
   xmlns:inkscape="http://www.inkscape.org/namespaces/inkscape"
   width="221.03793mm"
   height="46.024799mm"
   viewBox="0 0 221.03793 46.024799"
   version="1.1"
   id="svg8"
   inkscape:version="0.92.4 (5da689c313, 2019-01-14)"
   sodipodi:docname="golasblog-logo.svg">
  <title
     id="title1389">Golasblog logo</title>
  <defs
     id="defs2" />
  <sodipodi:namedview
     id="base"
     pagecolor="#ffffff"
     bordercolor="#666666"
     borderopacity="1.0"
     inkscape:pageopacity="0.0"
     inkscape:pageshadow="2"
     inkscape:zoom="1.4"
     inkscape:cx="357.2997"
     inkscape:cy="230.71623"
     inkscape:document-units="mm"
     inkscape:current-layer="layer1"
     showgrid="false"
     fit-margin-top="0"
     fit-margin-left="0"
     fit-margin-right="0"
     fit-margin-bottom="0"
     inkscape:window-width="2560"
     inkscape:window-height="1361"
     inkscape:window-x="2551"
     inkscape:window-y="-9"
     inkscape:window-maximized="1" />
  <metadata
     id="metadata5">
    <rdf:RDF>
      <cc:Work
         rdf:about="">
        <dc:format>image/svg+xml</dc:format>
        <dc:type
           rdf:resource="http://purl.org/dc/dcmitype/StillImage" />
        <dc:title>Golasblog logo</dc:title>
      </cc:Work>
    </rdf:RDF>
  </metadata>
  <g
     inkscape:label="Vrstva 1"
     inkscape:groupmode="layer"
     id="layer1"
     transform="translate(-18.451588,-242.5412)">
    <g
       aria-label="golasblog"
       style="font-style:normal;font-weight:normal;font-size:10.58333302px;line-height:1.25;font-family:sans-serif;letter-spacing:0px;word-spacing:0px;fill:#000000;fill-opacity:1;stroke:none;stroke-width:0.26458332"
       id="text1368">
      <path
         d="m 29.779988,252.8536 q 3.809999,0 6.045199,0.8636 2.2352,0.8128 3.2004,2.54 1.016,1.6764 1.016,4.3688 0,2.6416 -1.016,4.3688 -0.9652,1.7272 -3.2512,2.5908 -2.2352,0.8128 -5.994399,0.8128 -3.81,0 -6.096,-0.8128 -2.2352,-0.8636 -3.2512,-2.54 -0.9652,-1.7272 -0.9652,-4.3688 0,-2.6924 0.9652,-4.4196 1.016,-1.7272 3.2512,-2.54 2.286,-0.8636 6.096,-0.8636 z m 0,2.54 q -4.064,0 -5.6896,1.27 -1.6256,1.2192 -1.6256,3.9624 0,2.7432 1.6256,4.0132 1.6256,1.2192 5.6896,1.2192 4.063999,0 5.638799,-1.2192 1.5748,-1.27 1.5748,-4.0132 0,-2.7432 -1.5748,-3.9624 -1.5748,-1.27 -5.638799,-1.27 z m 13.157199,-1.9304 -0.2032,1.8796 -6.1976,0.4064 -1.778,-2.286 z m -20.065999,13.2588 1.9812,0.254 q -1.0668,0.9652 -1.4224,2.2352 -0.3556,1.2192 0.2032,2.2352 0.6096,1.016 2.4892,1.3208 l 9.448799,1.5748 q 3.3528,0.508 4.6228,2.1336 1.27,1.6256 1.27,4.6228 0,2.794 -1.1176,4.4196 -1.0668,1.6256 -3.6068,2.3368 -2.4892,0.7112 -6.705599,0.7112 -3.2512,0 -5.4864,-0.4064 -2.1844,-0.3556 -3.556,-1.2192 -1.3716,-0.8636 -1.9812,-2.286 -0.5588,-1.3716 -0.5588,-3.4544 0,-1.6764 0.3556,-2.8448 0.4064,-1.1176 1.3208,-1.9812 0.9652,-0.9144 2.54,-1.7272 l 2.6924,-1.4732 1.7272,0.5588 -2.4892,1.778 q -1.1176,0.762 -1.778,1.524 -0.6604,0.762 -0.9652,1.6764 -0.254,0.9144 -0.254,2.286 0,1.8288 0.762,2.8956 0.762,1.0668 2.5908,1.4732 1.8796,0.4064 5.08,0.4064 3.149599,0 4.927599,-0.4572 1.8288,-0.4064 2.5908,-1.4732 0.762,-1.016 0.762,-2.8448 0,-1.4224 -0.3556,-2.2352 -0.3048,-0.8128 -1.27,-1.27 -0.9144,-0.4572 -2.6924,-0.7112 l -9.347199,-1.4224 q -1.5748,-0.254 -2.54,-1.016 -0.9144,-0.762 -1.3208,-1.8288 -0.3556,-1.0668 -0.2032,-2.1336 0.1524,-1.1176 0.7112,-2.0828 0.6096,-1.016 1.5748,-1.5748 z"
         style="font-style:normal;font-variant:normal;font-weight:300;font-stretch:normal;font-size:50.79999924px;font-family:'Exo 2';-inkscape-font-specification:'Exo 2 Light';stroke-width:0.26458332"
         id="path1370"
         inkscape:connector-curvature="0" />
      <path
         d="m 58.320856,252.8536 q 4.1148,0 6.604,1.27 2.4892,1.27 3.556,4.1148 1.1176,2.8448 1.1176,7.5692 0,4.7244 -1.1176,7.5692 -1.0668,2.8448 -3.556,4.1148 -2.4892,1.27 -6.604,1.27 -4.1148,0 -6.604,-1.27 -2.4892,-1.27 -3.6068,-4.1148 -1.1176,-2.8448 -1.1176,-7.5692 0,-4.7244 1.1176,-7.5692 1.1176,-2.8448 3.6068,-4.1148 2.4892,-1.27 6.604,-1.27 z m 0,2.794 q -2.9972,0 -4.7244,0.9144 -1.7272,0.9144 -2.4892,3.1496 -0.7112,2.1844 -0.7112,6.0452 0,3.9116 0.7112,6.1468 0.762,2.2352 2.4892,3.1496 1.7272,0.9144 4.7244,0.9144 2.9464,0 4.6736,-0.9144 1.778,-0.9144 2.4892,-3.1496 0.762,-2.2352 0.762,-6.1468 0,-3.8608 -0.762,-6.0452 -0.7112,-2.2352 -2.4892,-3.1496 -1.7272,-0.9144 -4.6736,-0.9144 z"
         style="font-style:normal;font-variant:normal;font-weight:300;font-stretch:normal;font-size:50.79999924px;font-family:'Exo 2';-inkscape-font-specification:'Exo 2 Light';stroke-width:0.26458332"
         id="path1372"
         inkscape:connector-curvature="0" />
      <path
         d="m 80.137075,242.5412 -0.0508,29.4132 q 0,1.778 0.9652,2.6924 0.9652,0.9144 2.6924,0.9144 h 2.5908 l 0.3556,2.3876 q -0.4064,0.1524 -1.1684,0.254 -0.762,0.1524 -1.5748,0.2032 -0.762,0.1016 -1.3208,0.1016 -2.5908,0 -4.1656,-1.524 -1.524,-1.524 -1.524,-4.3688 v -30.0736 z"
         style="font-style:normal;font-variant:normal;font-weight:300;font-stretch:normal;font-size:50.79999924px;font-family:'Exo 2';-inkscape-font-specification:'Exo 2 Light';stroke-width:0.26458332"
         id="path1374"
         inkscape:connector-curvature="0" />
      <path
         d="m 102.95183,252.8536 q 2.54,0 4.2672,0.762 1.778,0.7112 2.6924,2.3876 0.9144,1.6256 0.9144,4.4196 v 17.6784 h -2.54 l -0.508,-5.3848 -0.2032,-0.4572 v -11.8364 q 0,-2.3368 -1.1176,-3.556 -1.0668,-1.2192 -4.1148,-1.2192 -2.2352,0 -5.181596,0.2032 -2.9464,0.2032 -5.7404,0.508 l -0.3048,-2.3876 q 1.7272,-0.3048 3.6576,-0.508 1.9304,-0.254 4.0132,-0.4064 2.082796,-0.2032 4.165596,-0.2032 z m 6.1976,10.2108 -0.0508,2.4384 -12.039596,0.1016 q -1.9304,0.0508 -2.8448,1.0668 -0.8636,0.9652 -0.8636,2.7432 v 2.1336 q 0,2.0828 1.0668,3.0988 1.0668,1.016 3.2512,1.016 1.6256,0.0508 3.555996,-0.5588 1.9812,-0.6096 3.9116,-1.778 1.9304,-1.1684 3.4036,-2.7432 v 2.4892 q -0.6096,0.762 -1.778,1.6764 -1.1176,0.9144 -2.6416,1.778 -1.4732,0.8636 -3.302,1.4224 -1.777996,0.5588 -3.708396,0.5588 -2.1336,0 -3.7084,-0.762 -1.5748,-0.762 -2.4892,-2.2352 -0.8636,-1.524 -0.8636,-3.6576 v -2.8448 q 0,-2.8448 1.6764,-4.3688 1.7272,-1.5748 4.826,-1.5748 z"
         style="font-style:normal;font-variant:normal;font-weight:300;font-stretch:normal;font-size:50.79999924px;font-family:'Exo 2';-inkscape-font-specification:'Exo 2 Light';stroke-width:0.26458332"
         id="path1376"
         inkscape:connector-curvature="0" />
      <path
         d="m 127.07786,252.8536 q 1.5748,0 3.302,0.1016 1.778,0.1016 3.5052,0.254 1.7272,0.1524 3.2512,0.3556 l -0.3048,2.3876 q -2.286,-0.1524 -4.6736,-0.2032 -2.3876,-0.1016 -4.6736,-0.1016 -2.4384,-0.0508 -3.9116,0.1524 -1.4224,0.1524 -2.1336,1.016 -0.6604,0.8128 -0.6604,2.7432 0,2.1844 0.9652,2.9972 0.9652,0.762 2.8448,1.1176 l 7.5692,1.4224 q 2.8448,0.5588 4.2164,2.032 1.4224,1.4732 1.4224,4.5212 0,3.0988 -1.1176,4.572 -1.1176,1.4732 -3.4036,1.9304 -2.286,0.508 -5.6896,0.508 -1.4732,0 -3.9624,-0.1016 -2.4384,-0.1016 -5.4356,-0.5588 l 0.254,-2.3368 q 1.3716,0.0508 2.7432,0.1524 1.3716,0.0508 2.794,0.1016 1.4732,0 3.048,0 2.8956,-0.0508 4.572,-0.3048 1.6764,-0.3048 2.3876,-1.2192 0.7112,-0.9144 0.7112,-2.7432 0,-2.1336 -1.1684,-2.8956 -1.1176,-0.762 -2.8956,-1.1176 l -7.5184,-1.3716 q -1.8796,-0.4064 -3.0988,-1.1684 -1.2192,-0.8128 -1.8288,-2.1336 -0.5588,-1.3716 -0.5588,-3.4036 0,-2.9464 1.016,-4.3688 1.016,-1.4732 3.0988,-1.9304 2.0828,-0.4572 5.334,-0.4064 z"
         style="font-style:normal;font-variant:normal;font-weight:300;font-stretch:normal;font-size:50.79999924px;font-family:'Exo 2';-inkscape-font-specification:'Exo 2 Light';stroke-width:0.26458332"
         id="path1378"
         inkscape:connector-curvature="0" />
      <path
         d="m 157.39832,252.8536 q 4.6736,0 6.7564,2.9972 2.1336,2.9464 2.1336,9.906 0,3.302 -0.5588,5.7404 -0.508,2.4384 -1.7272,4.064 -1.2192,1.5748 -3.2512,2.3876 -2.032,0.762 -5.0292,0.762 -1.27,0 -2.6924,-0.1016 -1.3716,-0.1016 -2.794,-0.3556 -1.4224,-0.2032 -2.8448,-0.508 -1.3716,-0.3048 -2.6416,-0.762 l 2.5908,-2.1844 q 1.524,0.4064 2.9464,0.7112 1.4224,0.254 2.7432,0.3556 1.3208,0.0508 2.6416,0.0508 2.6416,0 4.2164,-0.9652 1.6256,-0.9652 2.3368,-3.2004 0.7112,-2.2352 0.7112,-5.9944 0,-3.7084 -0.6096,-5.8928 -0.5588,-2.2352 -1.9812,-3.2004 -1.4224,-0.9652 -3.9624,-0.9652 -2.1336,0 -4.1656,1.2192 -1.9812,1.1684 -4.6228,3.2512 l -0.2032,-2.286 q 1.6256,-1.6256 3.2512,-2.6924 1.6256,-1.1176 3.302,-1.7272 1.7272,-0.6096 3.4544,-0.6096 z m -9.4488,-10.3124 v 9.8552 q 0,1.5748 -0.0508,2.794 -0.0508,1.2192 -0.3048,2.4892 l 0.3048,0.762 0.0508,18.6944 -3.2004,-0.1524 v -34.4424 z"
         style="font-style:normal;font-variant:normal;font-weight:300;font-stretch:normal;font-size:50.79999924px;font-family:'Exo 2';-inkscape-font-specification:'Exo 2 Light';stroke-width:0.26458332"
         id="path1380"
         inkscape:connector-curvature="0" />
      <path
         d="m 176.87536,242.5412 -0.0508,29.4132 q 0,1.778 0.9652,2.6924 0.9652,0.9144 2.6924,0.9144 h 2.5908 l 0.3556,2.3876 q -0.4064,0.1524 -1.1684,0.254 -0.762,0.1524 -1.5748,0.2032 -0.762,0.1016 -1.3208,0.1016 -2.5908,0 -4.1656,-1.524 -1.524,-1.524 -1.524,-4.3688 v -30.0736 z"
         style="font-style:normal;font-variant:normal;font-weight:300;font-stretch:normal;font-size:50.79999924px;font-family:'Exo 2';-inkscape-font-specification:'Exo 2 Light';stroke-width:0.26458332"
         id="path1382"
         inkscape:connector-curvature="0" />
      <path
         d="m 198.31852,252.8536 q 4.1148,0 6.604,1.27 2.4892,1.27 3.556,4.1148 1.1176,2.8448 1.1176,7.5692 0,4.7244 -1.1176,7.5692 -1.0668,2.8448 -3.556,4.1148 -2.4892,1.27 -6.604,1.27 -4.1148,0 -6.604,-1.27 -2.4892,-1.27 -3.6068,-4.1148 -1.1176,-2.8448 -1.1176,-7.5692 0,-4.7244 1.1176,-7.5692 1.1176,-2.8448 3.6068,-4.1148 2.4892,-1.27 6.604,-1.27 z m 0,2.794 q -2.9972,0 -4.7244,0.9144 -1.7272,0.9144 -2.4892,3.1496 -0.7112,2.1844 -0.7112,6.0452 0,3.9116 0.7112,6.1468 0.762,2.2352 2.4892,3.1496 1.7272,0.9144 4.7244,0.9144 2.9464,0 4.6736,-0.9144 1.778,-0.9144 2.4892,-3.1496 0.762,-2.2352 0.762,-6.1468 0,-3.8608 -0.762,-6.0452 -0.7112,-2.2352 -2.4892,-3.1496 -1.7272,-0.9144 -4.6736,-0.9144 z"
         style="font-style:normal;font-variant:normal;font-weight:300;font-stretch:normal;font-size:50.79999924px;font-family:'Exo 2';-inkscape-font-specification:'Exo 2 Light';stroke-width:0.26458332"
         id="path1384"
         inkscape:connector-curvature="0" />
      <path
         d="m 226.33233,252.8536 q 3.81,0 6.0452,0.8636 2.2352,0.8128 3.2004,2.54 1.016,1.6764 1.016,4.3688 0,2.6416 -1.016,4.3688 -0.9652,1.7272 -3.2512,2.5908 -2.2352,0.8128 -5.9944,0.8128 -3.81,0 -6.096,-0.8128 -2.2352,-0.8636 -3.2512,-2.54 -0.9652,-1.7272 -0.9652,-4.3688 0,-2.6924 0.9652,-4.4196 1.016,-1.7272 3.2512,-2.54 2.286,-0.8636 6.096,-0.8636 z m 0,2.54 q -4.064,0 -5.6896,1.27 -1.6256,1.2192 -1.6256,3.9624 0,2.7432 1.6256,4.0132 1.6256,1.2192 5.6896,1.2192 4.064,0 5.6388,-1.2192 1.5748,-1.27 1.5748,-4.0132 0,-2.7432 -1.5748,-3.9624 -1.5748,-1.27 -5.6388,-1.27 z m 13.15719,-1.9304 -0.2032,1.8796 -6.19759,0.4064 -1.778,-2.286 z m -20.06599,13.2588 1.9812,0.254 q -1.0668,0.9652 -1.4224,2.2352 -0.3556,1.2192 0.2032,2.2352 0.6096,1.016 2.4892,1.3208 l 9.4488,1.5748 q 3.3528,0.508 4.6228,2.1336 1.26999,1.6256 1.26999,4.6228 0,2.794 -1.11759,4.4196 -1.0668,1.6256 -3.6068,2.3368 -2.4892,0.7112 -6.7056,0.7112 -3.2512,0 -5.4864,-0.4064 -2.1844,-0.3556 -3.556,-1.2192 -1.3716,-0.8636 -1.9812,-2.286 -0.5588,-1.3716 -0.5588,-3.4544 0,-1.6764 0.3556,-2.8448 0.4064,-1.1176 1.3208,-1.9812 0.9652,-0.9144 2.54,-1.7272 l 2.6924,-1.4732 1.7272,0.5588 -2.4892,1.778 q -1.1176,0.762 -1.778,1.524 -0.6604,0.762 -0.9652,1.6764 -0.254,0.9144 -0.254,2.286 0,1.8288 0.762,2.8956 0.762,1.0668 2.5908,1.4732 1.8796,0.4064 5.08,0.4064 3.1496,0 4.9276,-0.4572 1.8288,-0.4064 2.5908,-1.4732 0.762,-1.016 0.762,-2.8448 0,-1.4224 -0.3556,-2.2352 -0.3048,-0.8128 -1.27,-1.27 -0.9144,-0.4572 -2.6924,-0.7112 l -9.3472,-1.4224 q -1.5748,-0.254 -2.54,-1.016 -0.9144,-0.762 -1.3208,-1.8288 -0.3556,-1.0668 -0.2032,-2.1336 0.1524,-1.1176 0.7112,-2.0828 0.6096,-1.016 1.5748,-1.5748 z"
         style="font-style:normal;font-variant:normal;font-weight:300;font-stretch:normal;font-size:50.79999924px;font-family:'Exo 2';-inkscape-font-specification:'Exo 2 Light';stroke-width:0.26458332"
         id="path1386"
         inkscape:connector-curvature="0" />
    </g>
  </g>
</svg>
