<?xml version="1.0" encoding="UTF-8" standalone="no"?>
<svg
   xmlns:dc="http://purl.org/dc/elements/1.1/"
   xmlns:cc="http://creativecommons.org/ns#"
   xmlns:rdf="http://www.w3.org/1999/02/22-rdf-syntax-ns#"
   xmlns:svg="http://www.w3.org/2000/svg"
   xmlns="http://www.w3.org/2000/svg"
   xmlns:sodipodi="http://sodipodi.sourceforge.net/DTD/sodipodi-0.dtd"
   xmlns:inkscape="http://www.inkscape.org/namespaces/inkscape"
   width="100"
   height="100"
   viewBox="0 0 26.458333 26.458334"
   version="1.1"
   id="svg8"
   inkscape:version="1.0.1 (3bc2e813f5, 2020-09-07)"
   sodipodi:docname="question.svg">
  <defs
     id="defs2" />
  <sodipodi:namedview
     id="base"
     pagecolor="#ffffff"
     bordercolor="#666666"
     borderopacity="1.0"
     inkscape:pageopacity="0.0"
     inkscape:pageshadow="2"
     inkscape:zoom="5.6"
     inkscape:cx="31.704424"
     inkscape:cy="37.106325"
     inkscape:document-units="mm"
     inkscape:current-layer="layer1"
     inkscape:document-rotation="0"
     showgrid="false"
     units="px"
     inkscape:window-width="1583"
     inkscape:window-height="1208"
     inkscape:window-x="32"
     inkscape:window-y="32"
     inkscape:window-maximized="0" />
  <metadata
     id="metadata5">
    <rdf:RDF>
      <cc:Work
         rdf:about="">
        <dc:format>image/svg+xml</dc:format>
        <dc:type
           rdf:resource="http://purl.org/dc/dcmitype/StillImage" />
        <dc:title />
      </cc:Work>
    </rdf:RDF>
  </metadata>
  <g
     inkscape:label="Vrstva 1"
     inkscape:groupmode="layer"
     id="layer1">
    <g
       aria-label="?"
       id="text835"
       style="font-style:normal;font-weight:normal;font-size:25.4px;line-height:1.25;font-family:sans-serif;fill:#a90000;fill-opacity:1;stroke:none;stroke-width:0.264583">
      <path
         d="m 18.469157,8.5224772 q 0,1.2154296 -0.434082,2.1704098 -0.434082,0.942578 -1.141016,1.674317 -0.694531,0.706933 -1.599902,1.32705 -0.905371,0.620118 -1.922363,1.203028 v 2.790527 h -2.22002 v -3.782715 q 0.806153,-0.458886 1.736328,-1.00459 0.942579,-0.545703 1.537891,-1.103808 0.719336,-0.644922 1.116211,-1.327051 0.396875,-0.6945311 0.396875,-1.7611327 0,-1.4014648 -0.954981,-2.0835937 -0.942578,-0.6945312 -2.443261,-0.6945312 -1.339453,0 -2.5424806,0.4216796 -1.190625,0.4216797 -1.8851562,0.8557618 H 7.9891767 V 4.6777507 Q 8.8573408,4.3428874 10.184392,4.0824382 11.523845,3.8095866 12.71447,3.8095866 q 2.666503,0 4.204394,1.3022461 1.550293,1.2898437 1.550293,3.4106445 z M 13.570231,22.648746 h -2.530078 v -2.616894 h 2.530078 z"
         style="font-size:25.4px;stroke-width:0.264583;fill:#a90000;fill-opacity:1"
         id="path832" />
    </g>
  </g>
</svg>
