<?xml version="1.0" encoding="UTF-8" standalone="no"?>
<svg
   xmlns:dc="http://purl.org/dc/elements/1.1/"
   xmlns:cc="http://creativecommons.org/ns#"
   xmlns:rdf="http://www.w3.org/1999/02/22-rdf-syntax-ns#"
   xmlns:svg="http://www.w3.org/2000/svg"
   xmlns="http://www.w3.org/2000/svg"
   xmlns:sodipodi="http://sodipodi.sourceforge.net/DTD/sodipodi-0.dtd"
   xmlns:inkscape="http://www.inkscape.org/namespaces/inkscape"
   version="1.1"
   id="Capa_1"
   x="0px"
   y="0px"
   viewBox="0 0 512 512"
   style="enable-background:new 0 0 512 512;"
   xml:space="preserve"
   sodipodi:docname="server.svg"
   inkscape:version="1.0.1 (3bc2e813f5, 2020-09-07)"><metadata
   id="metadata55"><rdf:RDF><cc:Work
       rdf:about=""><dc:format>image/svg+xml</dc:format><dc:type
         rdf:resource="http://purl.org/dc/dcmitype/StillImage" /></cc:Work></rdf:RDF></metadata><defs
   id="defs53" /><sodipodi:namedview
   pagecolor="#ffffff"
   bordercolor="#666666"
   borderopacity="1"
   objecttolerance="10"
   gridtolerance="10"
   guidetolerance="10"
   inkscape:pageopacity="0"
   inkscape:pageshadow="2"
   inkscape:window-width="2560"
   inkscape:window-height="1361"
   id="namedview51"
   showgrid="false"
   inkscape:zoom="1.3921165"
   inkscape:cx="117.82162"
   inkscape:cy="294.92293"
   inkscape:window-x="-9"
   inkscape:window-y="-9"
   inkscape:window-maximized="1"
   inkscape:current-layer="Capa_1"
   inkscape:document-rotation="0" />

<g
   id="g889"
   transform="matrix(0.7839396,0,0,0.7839396,55.311464,55.311464)"
   style="fill:#8ea604;fill-opacity:1"><g
     id="g4"
     style="fill:#8ea604;fill-opacity:1">
	<path
   d="m 485.52,0 h -448 C 19.848,0 0,8.807 0,26.48 v 320 C 0,364.152 19.848,381 37.52,381 H 231 v 30 h -17.48 c -8.836,0 -16,10 -16,20 h -80 c -17.672,0 -32,12.328 -32,30 0,17.672 14.328,30 32,30 h 80 c 0,10 7.164,21 16,21 h 96 c 8.836,0 16,-11 16,-21 h 80 c 17.672,0 32,-12.328 32,-30 0,-17.672 -14.328,-30 -32,-30 h -80 c 0,-10 -7.164,-20 -16,-20 H 292 V 381 H 485.52 C 503.192,381 512,364.152 512,346.48 v -320 C 512,8.807 503.191,0 485.52,0 Z M 452,311 H 71 v -91 h 381 z m 0,-161 H 71 V 60 h 381 z"
   id="path2"
   style="fill:#8ea604;fill-opacity:1" />
</g><g
     id="g18"
     style="fill:#8ea604;fill-opacity:1">
	<g
   id="g10"
   style="fill:#8ea604;fill-opacity:1">
		<circle
   cx="299"
   cy="107"
   r="32"
   id="circle6"
   style="fill:#8ea604;fill-opacity:1" />
		<circle
   cx="395"
   cy="107"
   r="32"
   id="circle8"
   style="fill:#8ea604;fill-opacity:1" />
	</g>
	<g
   id="g16"
   style="fill:#8ea604;fill-opacity:1">
		<circle
   cx="299"
   cy="267"
   r="32"
   id="circle12"
   style="fill:#8ea604;fill-opacity:1" />
		<circle
   cx="395"
   cy="267"
   r="32"
   id="circle14"
   style="fill:#8ea604;fill-opacity:1" />
	</g>
</g></g>
<g
   id="g20">
</g>
<g
   id="g22">
</g>
<g
   id="g24">
</g>
<g
   id="g26">
</g>
<g
   id="g28">
</g>
<g
   id="g30">
</g>
<g
   id="g32">
</g>
<g
   id="g34">
</g>
<g
   id="g36">
</g>
<g
   id="g38">
</g>
<g
   id="g40">
</g>
<g
   id="g42">
</g>
<g
   id="g44">
</g>
<g
   id="g46">
</g>
<g
   id="g48">
</g>
</svg>
